<svg width="120" height="120" viewBox="0 0 120 120" fill="none" xmlns="http://www.w3.org/2000/svg">
<path d="M111.567 32.7237C111.043 32.4609 110.458 32.3411 109.873 32.3762C109.288 32.4113 108.722 32.6002 108.233 32.9237L76.6668 54.057V35.6904C76.6678 35.0564 76.488 34.4353 76.1485 33.8999C75.8091 33.3645 75.3239 32.9371 74.7501 32.6676C74.1762 32.3982 73.5375 32.298 72.9087 32.3788C72.2799 32.4596 71.6872 32.718 71.2001 33.1237L44.9334 54.8237H33.3334V23.557C33.3522 22.7865 33.1035 22.0332 32.6294 21.4255C32.1554 20.8177 31.4854 20.393 30.7334 20.2237L17.4001 17.2237C16.9081 17.1133 16.3976 17.116 15.9068 17.2314C15.416 17.3469 14.9579 17.5722 14.5667 17.8904C14.1666 18.2145 13.8469 18.627 13.633 19.0955C13.419 19.564 13.3164 20.0756 13.3334 20.5904V54.8237H10.0001C9.11603 54.8237 8.26818 55.1749 7.64306 55.8C7.01794 56.4251 6.66675 57.273 6.66675 58.157V111.49C6.66675 112.374 7.01794 113.222 7.64306 113.847C8.26818 114.473 9.11603 114.824 10.0001 114.824H110C110.884 114.824 111.732 114.473 112.357 113.847C112.982 113.222 113.333 112.374 113.333 111.49V35.6904C113.338 35.0817 113.176 34.4834 112.864 33.9605C112.553 33.4375 112.104 33.0098 111.567 32.7237ZM20.0001 24.8237L26.6667 26.2904V54.8237H20.0001V24.8237ZM106.667 108.157H13.3334V61.4904H46.1001C46.8789 61.4919 47.6337 61.2206 48.2334 60.7237L70.0001 42.7237V60.3237C69.9992 60.9293 70.1632 61.5236 70.4747 62.043C70.7861 62.5623 71.2331 62.987 71.7677 63.2715C72.3023 63.5559 72.9043 63.6893 73.509 63.6574C74.1138 63.6255 74.6984 63.4295 75.2001 63.0904L106.667 41.957V108.157Z" fill="#FE9A30"/>
<path d="M20 68.1238H46.6667V74.7904H20V68.1238ZM20 81.4571H46.6667V88.1238H20V81.4571ZM20 94.7904H46.6667V101.457H20V94.7904ZM63.3333 71.4571H70V81.4571H63.3333V71.4571ZM63.3333 91.4571H70V101.457H63.3333V91.4571ZM76.6667 71.4571H83.3333V81.4571H76.6667V71.4571ZM76.6667 91.4571H83.3333V101.457H76.6667V91.4571ZM90 71.4571H96.6667V81.4571H90V71.4571ZM90 91.4571H96.6667V101.457H90V91.4571Z" fill="#FE9A30"/>
</svg>
