<svg width="121" height="120" viewBox="0 0 121 120" fill="none" xmlns="http://www.w3.org/2000/svg">
<path d="M41.0504 5.37558L5.89062 44.1904V114.609H115.109V44.2603L84.0139 5.39058C69.6934 5.31183 55.3707 5.5059 41.0506 5.37558H41.0504ZM46.486 9.60933H63.2361L89.8613 42.8906H76.4394L46.486 9.60933ZM68.6391 9.60933H81.9861L108.611 42.8906H95.2637L68.6391 9.60933ZM41.75 10.6535L73.3906 45.8093V110.391H10.1094V45.8093L41.75 10.6535ZM52.6897 35.1836C46.1206 35.4679 40.9498 38.3041 37.0773 42.0529C32.6007 46.3865 29.9255 51.9799 29.146 55.9474C27.4494 64.5825 31.4448 70.4463 36.428 72.4584C36.4327 72.4111 36.4395 72.4171 36.4285 72.4021C34.6691 63.2974 37.3927 54.6107 43.1598 48.858C38.8039 55.5534 38.2393 65.4597 40.8863 73.222C42.0078 73.155 43.1071 72.8807 44.1287 72.4132C46.5465 71.305 48.7259 69.0518 50.0851 65.2575C51.533 61.215 50.292 54.7007 49.794 48.5114C49.5451 45.4169 49.4977 42.3829 50.2374 39.6747C50.693 38.0076 51.4859 36.4638 52.6897 35.1836ZM77.6094 47.1093H92.1406V72.8906H77.6094V47.1093ZM96.3594 47.1093H110.891V72.8906H96.3594V47.1093ZM18.822 57.0731C15.1077 61.2459 13.7209 66.0811 13.6452 70.695C13.5561 76.1308 15.3615 81.2407 17.3197 84.1575C21.5462 90.4528 27.5673 91.5872 31.8371 89.8528C25.1588 85.2942 21.4965 78.2524 21.5054 71.1386C22.9461 77.9512 28.674 84.4066 35.0795 87.6011C35.7332 86.8689 36.2439 86.0207 36.5851 85.1003C37.3838 82.95 37.3445 80.2464 35.847 77.0758C34.2662 73.7289 29.4716 70.4507 25.3145 66.9121C23.2358 65.1426 21.3165 63.2805 20.0818 61.117C19.3756 59.8793 18.9223 58.5159 18.822 57.0731ZM69.4951 65.8354C68.6865 67.0359 67.614 67.9933 66.3826 68.7126C64.232 69.9689 61.6395 70.62 58.9552 71.1126C53.5857 72.0984 47.7966 72.5388 44.7547 74.646C41.873 76.6429 40.483 78.9665 40.0998 81.2282C39.9358 82.1958 39.9547 83.1856 40.1555 84.1462C47.3002 84.5831 55.4865 81.8566 60.1402 76.6771C56.5927 82.8421 49.9013 87.1089 41.8402 87.7171C44.671 91.3547 50.4488 93.3843 57.2553 90.0461C60.4091 88.4997 64.5296 84.9768 67.1696 80.2254C69.4107 76.1913 70.6259 71.3072 69.4951 65.8354ZM77.6094 77.1093H92.1406V110.391H77.6094V77.1093ZM96.3594 77.1093H110.891V110.391H96.3594V77.1093ZM36.1173 90.8486C35.3443 96.2512 37.3196 101.4 37.3208 105.186L41.5395 105.184C41.5381 100.191 39.7395 95.3168 40.2934 91.4465C39.2743 89.9978 38.1298 89.7829 36.1173 90.8489V90.8486Z" fill="#FE9A30"/>
</svg>
