<svg width="195" height="135" viewBox="0 0 195 135" fill="none" xmlns="http://www.w3.org/2000/svg">
<g filter="url(#filter0_d_7_90)">
<path d="M23.5508 92.7059V54.2588L29.6 48L29.3242 78.5796C29.254 86.3606 35.5422 92.7059 43.3236 92.7059H123.753C126.099 92.7059 128 94.6074 128 96.9529C128 99.2985 126.099 101.2 123.753 101.2H29.1967V121.177C29.1967 122.736 27.9328 124 26.3738 124C24.8147 124 23.5508 122.736 23.5508 121.177V101.2H9.24706C6.90147 101.2 5 99.2985 5 96.9529C5 94.6074 6.90147 92.7059 9.24705 92.7059H23.5508Z" fill="url(#paint0_linear_7_90)" shape-rendering="crispEdges"/>
</g>
<g filter="url(#filter1_d_7_90)">
<path d="M20.5373 62H12.4776H8L24.5672 45.9091V28.0303H32.1791V38.3106L67.5522 3L128 62H116.358L71.1343 15.0682C69.1362 13.3567 66.1414 13.5359 64.3616 15.4734L62.5 17.5L20.5373 62Z" fill="url(#paint1_linear_7_90)" shape-rendering="crispEdges"/>
</g>
<path d="M71 73H81.8V72.1H83V70.9H81.8V70H71V73Z" fill="url(#paint2_linear_7_90)"/>
<path d="M71 78H81.8V77.1H83V75.9H81.8V75H71V78Z" fill="url(#paint3_linear_7_90)"/>
<path d="M71 83H81.8V82.1H83V80.9H81.8V80H71V83Z" fill="url(#paint4_linear_7_90)"/>
<g clip-path="url(#clip0_7_90)">
<path d="M169.693 90.9352L168.449 89.9222C174.704 80.9971 182.52 80.2946 185.647 81.0591C177.528 78.5523 171.878 82.9555 170.068 85.4705C167.333 76.2823 177.052 75.1305 186.251 77.9185C188.718 78.6661 190.408 78.3114 192.192 77.8404C183.451 91.2377 176.583 91.2026 171.542 88.8075L169.693 90.9352Z" fill="url(#paint5_linear_7_90)"/>
</g>
<path d="M87.6125 49.6C87.1813 49.0375 86.6563 48.55 86.1688 48.0625C84.9125 46.9375 83.4875 46.1312 82.2875 44.95C79.4938 42.2125 78.875 37.6937 80.6563 34.225C78.875 34.6562 77.3188 35.6312 75.9875 36.7C71.1313 40.6 69.2188 47.4812 71.5063 53.3875C71.5813 53.575 71.6563 53.7625 71.6563 54.0062C71.6563 54.4187 71.375 54.7937 71 54.9437C70.5688 55.1312 70.1188 55.0187 69.7625 54.7187C69.6555 54.6302 69.5664 54.522 69.5 54.4C67.3813 51.7187 67.0438 47.875 68.4688 44.8C65.3375 47.35 63.6313 51.6625 63.875 55.7312C63.9875 56.6687 64.1 57.6062 64.4188 58.5437C64.6813 59.6687 65.1875 60.7937 65.75 61.7875C67.775 65.0312 71.2813 67.3562 75.05 67.825C79.0625 68.3312 83.3563 67.6 86.4313 64.825C89.8625 61.7125 91.0625 56.725 89.3 52.45L89.0563 51.9625C88.6625 51.1 87.6125 49.6 87.6125 49.6ZM81.6875 61.4125C81.1625 61.8625 80.3 62.35 79.625 62.5375C77.525 63.2875 75.425 62.2375 74.1875 61C76.4188 60.475 77.75 58.825 78.1438 57.1562C78.4625 55.6562 77.8625 54.4187 77.6188 52.975C77.3938 51.5875 77.4313 50.4062 77.9375 49.1125C78.2938 49.825 78.6688 50.5375 79.1188 51.1C80.5625 52.975 82.8313 53.8 83.3188 56.35C83.3938 56.6125 83.4313 56.875 83.4313 57.1562C83.4875 58.6937 82.8125 60.3812 81.6875 61.4125Z" fill="url(#paint6_linear_7_90)"/>
<g filter="url(#filter2_d_7_90)">
<path d="M38.276 65V56.693L38.601 57.031H35.169V55.9H42.67V57.031H39.238L39.55 56.693V65H38.276ZM44.25 65V55.9H52.089V65H50.815V56.693L51.127 57.031H45.212L45.537 56.693V65H44.25ZM54.9008 63.856C55.3514 64.0207 55.7674 64.064 56.1488 63.986C56.5301 63.8993 56.8724 63.609 57.1758 63.115L57.6178 62.413L57.7478 62.27L61.0888 55.9H62.3758L58.3328 63.388C58.0294 63.96 57.6741 64.3933 57.2668 64.688C56.8681 64.974 56.4348 65.13 55.9668 65.156C55.5074 65.1907 55.0394 65.104 54.5628 64.896L54.9008 63.856ZM57.7088 63.427L53.7178 55.9H55.1088L58.4238 62.387L57.7088 63.427Z" fill="black"/>
</g>
<g filter="url(#filter3_d_7_90)">
<path d="M36.744 82V70.8H45.192V72.16H38.328V75.36H41.816C43.1493 75.36 44.1627 75.6373 44.856 76.192C45.5493 76.7467 45.896 77.552 45.896 78.608C45.896 79.696 45.5173 80.5333 44.76 81.12C44.0133 81.7067 42.9413 82 41.544 82H36.744ZM38.328 80.736H41.48C42.408 80.736 43.1067 80.56 43.576 80.208C44.056 79.856 44.296 79.3333 44.296 78.64C44.296 77.296 43.3573 76.624 41.48 76.624H38.328V80.736ZM49.9031 75.632H55.6631V76.992H49.9031V75.632ZM50.0471 80.608H56.5751V82H48.4471V70.8H56.3511V72.192H50.0471V80.608ZM59.0878 82V70.8H63.4558C64.4371 70.8 65.2744 70.9547 65.9678 71.264C66.6611 71.5733 67.1944 72.0213 67.5678 72.608C67.9411 73.1947 68.1278 73.8933 68.1278 74.704C68.1278 75.5147 67.9411 76.2133 67.5678 76.8C67.1944 77.376 66.6611 77.824 65.9678 78.144C65.2744 78.4533 64.4371 78.608 63.4558 78.608H59.9678L60.6878 77.856V82H59.0878ZM60.6878 78.016L59.9678 77.216H63.4078C64.4318 77.216 65.2051 76.9973 65.7278 76.56C66.2611 76.1227 66.5278 75.504 66.5278 74.704C66.5278 73.904 66.2611 73.2853 65.7278 72.848C65.2051 72.4107 64.4318 72.192 63.4078 72.192H59.9678L60.6878 71.392V78.016Z" fill="black"/>
</g>
<g filter="url(#filter4_d_7_90)">
<path d="M85.512 80.784L86.072 79.6C86.5627 79.984 87.1013 80.272 87.688 80.464C88.2853 80.656 88.8773 80.7573 89.464 80.768C90.0507 80.768 90.5893 80.688 91.08 80.528C91.5813 80.368 91.9813 80.128 92.28 79.808C92.5787 79.488 92.728 79.0933 92.728 78.624C92.728 78.048 92.4933 77.6107 92.024 77.312C91.5653 77.0133 90.9253 76.864 90.104 76.864H87.608V75.568H89.992C90.7067 75.568 91.2613 75.424 91.656 75.136C92.0613 74.8373 92.264 74.4267 92.264 73.904C92.264 73.5093 92.1413 73.1787 91.896 72.912C91.6613 72.6347 91.336 72.4267 90.92 72.288C90.5147 72.1493 90.0507 72.08 89.528 72.08C89.016 72.0693 88.488 72.1387 87.944 72.288C87.4 72.4267 86.8773 72.6507 86.376 72.96L85.864 71.648C86.5467 71.264 87.256 70.9973 87.992 70.848C88.7387 70.688 89.4587 70.64 90.152 70.704C90.8453 70.7573 91.4693 70.9173 92.024 71.184C92.5893 71.44 93.0373 71.7813 93.368 72.208C93.7093 72.624 93.88 73.1253 93.88 73.712C93.88 74.2453 93.7413 74.72 93.464 75.136C93.1867 75.5413 92.8027 75.856 92.312 76.08C91.8213 76.2933 91.2507 76.4 90.6 76.4L90.664 75.968C91.4107 75.968 92.056 76.0907 92.6 76.336C93.1547 76.5707 93.5813 76.9067 93.88 77.344C94.1893 77.7813 94.344 78.288 94.344 78.864C94.344 79.408 94.2053 79.8933 93.928 80.32C93.6507 80.736 93.272 81.088 92.792 81.376C92.3227 81.6533 91.784 81.856 91.176 81.984C90.5787 82.112 89.9493 82.1547 89.288 82.112C88.6267 82.0693 87.9707 81.9413 87.32 81.728C86.68 81.5147 86.0773 81.2 85.512 80.784ZM102.05 82.128C101.196 82.128 100.402 81.984 99.6656 81.696C98.9403 81.408 98.311 81.008 97.7776 80.496C97.2443 79.9733 96.8283 79.3653 96.5296 78.672C96.231 77.9787 96.0816 77.2213 96.0816 76.4C96.0816 75.5787 96.231 74.8213 96.5296 74.128C96.8283 73.4347 97.2443 72.832 97.7776 72.32C98.311 71.7973 98.9403 71.392 99.6656 71.104C100.391 70.816 101.186 70.672 102.05 70.672C102.903 70.672 103.687 70.816 104.402 71.104C105.127 71.3813 105.756 71.7813 106.29 72.304C106.834 72.816 107.25 73.4187 107.538 74.112C107.836 74.8053 107.986 75.568 107.986 76.4C107.986 77.232 107.836 77.9947 107.538 78.688C107.25 79.3813 106.834 79.9893 106.29 80.512C105.756 81.024 105.127 81.424 104.402 81.712C103.687 81.9893 102.903 82.128 102.05 82.128ZM102.05 80.704C102.668 80.704 103.239 80.5973 103.762 80.384C104.295 80.1707 104.754 79.872 105.138 79.488C105.532 79.0933 105.836 78.6347 106.05 78.112C106.274 77.5893 106.386 77.0187 106.386 76.4C106.386 75.7813 106.274 75.2107 106.05 74.688C105.836 74.1653 105.532 73.712 105.138 73.328C104.754 72.9333 104.295 72.6293 103.762 72.416C103.239 72.2027 102.668 72.096 102.05 72.096C101.42 72.096 100.839 72.2027 100.306 72.416C99.783 72.6293 99.3243 72.9333 98.9296 73.328C98.535 73.712 98.2256 74.1653 98.0016 74.688C97.7883 75.2107 97.6816 75.7813 97.6816 76.4C97.6816 77.0187 97.7883 77.5893 98.0016 78.112C98.2256 78.6347 98.535 79.0933 98.9296 79.488C99.3243 79.872 99.783 80.1707 100.306 80.384C100.839 80.5973 101.42 80.704 102.05 80.704ZM110.572 82V70.8H115.388C116.604 70.8 117.559 71.0453 118.252 71.536C118.945 72.0267 119.292 72.7413 119.292 73.68C119.292 74.5973 118.961 75.3013 118.3 75.792C117.639 76.272 116.769 76.512 115.692 76.512L115.98 76.032C117.228 76.032 118.183 76.2827 118.844 76.784C119.516 77.2747 119.852 77.9947 119.852 78.944C119.852 79.904 119.5 80.656 118.796 81.2C118.103 81.7333 117.068 82 115.692 82H110.572ZM112.156 80.736H115.66C116.513 80.736 117.153 80.5813 117.58 80.272C118.017 79.952 118.236 79.4667 118.236 78.816C118.236 78.1653 118.017 77.6907 117.58 77.392C117.153 77.0933 116.513 76.944 115.66 76.944H112.156V80.736ZM112.156 75.728H115.276C116.055 75.728 116.647 75.5733 117.052 75.264C117.468 74.9547 117.676 74.5013 117.676 73.904C117.676 73.296 117.468 72.8373 117.052 72.528C116.647 72.2187 116.055 72.064 115.276 72.064H112.156V75.728ZM127.533 82.128C126.68 82.128 125.891 81.9893 125.165 81.712C124.451 81.424 123.827 81.024 123.293 80.512C122.771 79.9893 122.36 79.3813 122.061 78.688C121.763 77.9947 121.613 77.232 121.613 76.4C121.613 75.568 121.763 74.8053 122.061 74.112C122.36 73.4187 122.776 72.816 123.309 72.304C123.843 71.7813 124.467 71.3813 125.181 71.104C125.907 70.816 126.696 70.672 127.549 70.672C128.413 70.672 129.208 70.8213 129.933 71.12C130.669 71.408 131.293 71.84 131.805 72.416L130.765 73.424C130.339 72.976 129.859 72.6453 129.325 72.432C128.792 72.208 128.221 72.096 127.613 72.096C126.984 72.096 126.397 72.2027 125.853 72.416C125.32 72.6293 124.856 72.928 124.461 73.312C124.067 73.696 123.757 74.1547 123.533 74.688C123.32 75.2107 123.213 75.7813 123.213 76.4C123.213 77.0187 123.32 77.5947 123.533 78.128C123.757 78.6507 124.067 79.104 124.461 79.488C124.856 79.872 125.32 80.1707 125.853 80.384C126.397 80.5973 126.984 80.704 127.613 80.704C128.221 80.704 128.792 80.5973 129.325 80.384C129.859 80.16 130.339 79.8187 130.765 79.36L131.805 80.368C131.293 80.944 130.669 81.3813 129.933 81.68C129.208 81.9787 128.408 82.128 127.533 82.128ZM141.546 82L137.482 76.48L138.778 75.68L143.37 82H141.546ZM134.01 82V70.8H135.578V82H134.01ZM135.098 77.072V75.664H138.73V77.072H135.098ZM138.922 76.576L137.45 76.352L141.466 70.8H143.178L138.922 76.576ZM150.018 82.128C149.165 82.128 148.37 81.984 147.634 81.696C146.909 81.408 146.28 81.008 145.746 80.496C145.213 79.9733 144.797 79.3653 144.498 78.672C144.2 77.9787 144.05 77.2213 144.05 76.4C144.05 75.5787 144.2 74.8213 144.498 74.128C144.797 73.4347 145.213 72.832 145.746 72.32C146.28 71.7973 146.909 71.392 147.634 71.104C148.36 70.816 149.154 70.672 150.018 70.672C150.872 70.672 151.656 70.816 152.37 71.104C153.096 71.3813 153.725 71.7813 154.258 72.304C154.802 72.816 155.218 73.4187 155.506 74.112C155.805 74.8053 155.954 75.568 155.954 76.4C155.954 77.232 155.805 77.9947 155.506 78.688C155.218 79.3813 154.802 79.9893 154.258 80.512C153.725 81.024 153.096 81.424 152.37 81.712C151.656 81.9893 150.872 82.128 150.018 82.128ZM150.018 80.704C150.637 80.704 151.208 80.5973 151.73 80.384C152.264 80.1707 152.722 79.872 153.106 79.488C153.501 79.0933 153.805 78.6347 154.018 78.112C154.242 77.5893 154.354 77.0187 154.354 76.4C154.354 75.7813 154.242 75.2107 154.018 74.688C153.805 74.1653 153.501 73.712 153.106 73.328C152.722 72.9333 152.264 72.6293 151.73 72.416C151.208 72.2027 150.637 72.096 150.018 72.096C149.389 72.096 148.808 72.2027 148.274 72.416C147.752 72.6293 147.293 72.9333 146.898 73.328C146.504 73.712 146.194 74.1653 145.97 74.688C145.757 75.2107 145.65 75.7813 145.65 76.4C145.65 77.0187 145.757 77.5893 145.97 78.112C146.194 78.6347 146.504 79.0933 146.898 79.488C147.293 79.872 147.752 80.1707 148.274 80.384C148.808 80.5973 149.389 80.704 150.018 80.704ZM159.997 75.632H165.757V76.992H159.997V75.632ZM160.141 80.608H166.669V82H158.541V70.8H166.445V72.192H160.141V80.608Z" fill="black"/>
</g>
<defs>
<filter id="filter0_d_7_90" x="0" y="45" width="137" height="90" filterUnits="userSpaceOnUse" color-interpolation-filters="sRGB">
<feFlood flood-opacity="0" result="BackgroundImageFix"/>
<feColorMatrix in="SourceAlpha" type="matrix" values="0 0 0 0 0 0 0 0 0 0 0 0 0 0 0 0 0 0 127 0" result="hardAlpha"/>
<feOffset dx="2" dy="4"/>
<feGaussianBlur stdDeviation="3.5"/>
<feComposite in2="hardAlpha" operator="out"/>
<feColorMatrix type="matrix" values="0 0 0 0 0 0 0 0 0 0 0 0 0 0 0 0 0 0 0.1 0"/>
<feBlend mode="normal" in2="BackgroundImageFix" result="effect1_dropShadow_7_90"/>
<feBlend mode="normal" in="SourceGraphic" in2="effect1_dropShadow_7_90" result="shape"/>
</filter>
<filter id="filter1_d_7_90" x="3" y="0" width="134" height="73" filterUnits="userSpaceOnUse" color-interpolation-filters="sRGB">
<feFlood flood-opacity="0" result="BackgroundImageFix"/>
<feColorMatrix in="SourceAlpha" type="matrix" values="0 0 0 0 0 0 0 0 0 0 0 0 0 0 0 0 0 0 127 0" result="hardAlpha"/>
<feOffset dx="2" dy="4"/>
<feGaussianBlur stdDeviation="3.5"/>
<feComposite in2="hardAlpha" operator="out"/>
<feColorMatrix type="matrix" values="0 0 0 0 0 0 0 0 0 0 0 0 0 0 0 0 0 0 0.1 0"/>
<feBlend mode="normal" in2="BackgroundImageFix" result="effect1_dropShadow_7_90"/>
<feBlend mode="normal" in="SourceGraphic" in2="effect1_dropShadow_7_90" result="shape"/>
</filter>
<filter id="filter2_d_7_90" x="29.1689" y="52.9" width="37.2068" height="19.308" filterUnits="userSpaceOnUse" color-interpolation-filters="sRGB">
<feFlood flood-opacity="0" result="BackgroundImageFix"/>
<feColorMatrix in="SourceAlpha" type="matrix" values="0 0 0 0 0 0 0 0 0 0 0 0 0 0 0 0 0 0 127 0" result="hardAlpha"/>
<feOffset dx="-1" dy="2"/>
<feGaussianBlur stdDeviation="2.5"/>
<feComposite in2="hardAlpha" operator="out"/>
<feColorMatrix type="matrix" values="0 0 0 0 0 0 0 0 0 0 0 0 0 0 0 0 0 0 0.27 0"/>
<feBlend mode="normal" in2="BackgroundImageFix" result="effect1_dropShadow_7_90"/>
<feBlend mode="normal" in="SourceGraphic" in2="effect1_dropShadow_7_90" result="shape"/>
</filter>
<filter id="filter3_d_7_90" x="30.7439" y="67.8" width="41.3838" height="21.2" filterUnits="userSpaceOnUse" color-interpolation-filters="sRGB">
<feFlood flood-opacity="0" result="BackgroundImageFix"/>
<feColorMatrix in="SourceAlpha" type="matrix" values="0 0 0 0 0 0 0 0 0 0 0 0 0 0 0 0 0 0 127 0" result="hardAlpha"/>
<feOffset dx="-1" dy="2"/>
<feGaussianBlur stdDeviation="2.5"/>
<feComposite in2="hardAlpha" operator="out"/>
<feColorMatrix type="matrix" values="0 0 0 0 0 0 0 0 0 0 0 0 0 0 0 0 0 0 0.27 0"/>
<feBlend mode="normal" in2="BackgroundImageFix" result="effect1_dropShadow_7_90"/>
<feBlend mode="normal" in="SourceGraphic" in2="effect1_dropShadow_7_90" result="shape"/>
</filter>
<filter id="filter4_d_7_90" x="79.512" y="67.608" width="91.157" height="21.568" filterUnits="userSpaceOnUse" color-interpolation-filters="sRGB">
<feFlood flood-opacity="0" result="BackgroundImageFix"/>
<feColorMatrix in="SourceAlpha" type="matrix" values="0 0 0 0 0 0 0 0 0 0 0 0 0 0 0 0 0 0 127 0" result="hardAlpha"/>
<feOffset dx="-1" dy="2"/>
<feGaussianBlur stdDeviation="2.5"/>
<feComposite in2="hardAlpha" operator="out"/>
<feColorMatrix type="matrix" values="0 0 0 0 0 0 0 0 0 0 0 0 0 0 0 0 0 0 0.27 0"/>
<feBlend mode="normal" in2="BackgroundImageFix" result="effect1_dropShadow_7_90"/>
<feBlend mode="normal" in="SourceGraphic" in2="effect1_dropShadow_7_90" result="shape"/>
</filter>
<linearGradient id="paint0_linear_7_90" x1="13.2612" y1="124" x2="141.769" y2="124" gradientUnits="userSpaceOnUse">
<stop stop-color="#FFC736" stop-opacity="0.93"/>
<stop offset="1" stop-color="#FF7C25"/>
</linearGradient>
<linearGradient id="paint1_linear_7_90" x1="16.0597" y1="62" x2="141.433" y2="62" gradientUnits="userSpaceOnUse">
<stop stop-color="#FFC736" stop-opacity="0.93"/>
<stop offset="1" stop-color="#FF7C25"/>
</linearGradient>
<linearGradient id="paint2_linear_7_90" x1="71" y1="71.5" x2="86.3" y2="71.5" gradientUnits="userSpaceOnUse">
<stop stop-color="#FFC700"/>
<stop offset="1" stop-color="#00DB16" stop-opacity="0.99"/>
</linearGradient>
<linearGradient id="paint3_linear_7_90" x1="71" y1="76.5" x2="86.3" y2="76.5" gradientUnits="userSpaceOnUse">
<stop stop-color="#FFC700"/>
<stop offset="1" stop-color="#00DB16" stop-opacity="0.99"/>
</linearGradient>
<linearGradient id="paint4_linear_7_90" x1="71" y1="81.5" x2="86.3" y2="81.5" gradientUnits="userSpaceOnUse">
<stop stop-color="#FFC700"/>
<stop offset="1" stop-color="#00DB16" stop-opacity="0.99"/>
</linearGradient>
<linearGradient id="paint5_linear_7_90" x1="169.412" y1="90.8327" x2="207.595" y2="69.5552" gradientUnits="userSpaceOnUse">
<stop stop-color="#026B34"/>
<stop offset="1" stop-color="#05FC00"/>
</linearGradient>
<linearGradient id="paint6_linear_7_90" x1="65.6154" y1="67.974" x2="93.0458" y2="67.974" gradientUnits="userSpaceOnUse">
<stop stop-color="#FFC736" stop-opacity="0.93"/>
<stop offset="1" stop-color="#FF7C25"/>
</linearGradient>
<clipPath id="clip0_7_90">
<rect width="24" height="24.0038" fill="white" transform="matrix(0.939693 0.34202 -0.341708 0.939806 172.202 68)"/>
</clipPath>
</defs>
</svg>
