<svg width="121" height="120" viewBox="0 0 121 120" fill="none" xmlns="http://www.w3.org/2000/svg">
<path d="M60.7395 7.20126C60.8279 7.30116 60.9187 7.40438 61.0116 7.51083C62.3562 9.05058 64.1511 11.2547 65.9487 13.9054C69.5951 19.2823 73.0244 26.1653 73.1174 32.9271C73.1387 34.4832 73.1245 35.3316 72.8745 36.3059C72.6199 37.2986 72.0759 38.5706 70.7781 40.7471C69.55 42.784 68.4064 44.6145 67.3277 46.3412C65.2108 49.7299 63.3435 52.719 61.576 56.0839C59.9594 53.1606 58.0933 50.3726 56.393 47.8339C53.6973 43.8091 51.5558 40.5871 50.7305 37.9914C50.5848 37.3418 50.4044 36.7156 50.2668 36.2379C50.2091 36.0376 50.1589 35.8634 50.122 35.7246C49.9762 35.1767 49.884 34.6975 49.8747 34.0302L60.7395 7.20126ZM60.7395 7.20126C60.6606 7.3073 60.5797 7.41675 60.4969 7.52955C59.2852 9.17917 57.671 11.531 56.0655 14.3316C52.8124 20.0062 49.7807 27.2061 49.8747 34.03L60.7395 7.20126ZM71.8237 112.351H51.2269C55.4556 105.232 58.6744 97.6567 60.1429 90.5336L71.8237 112.351ZM71.8237 112.351C67.5618 105.178 64.3374 97.5614 62.8907 90.3993L62.8906 90.3991C61.9118 85.5509 61.7096 80.7466 62.8147 76.3591L71.8237 112.351ZM114.055 27.9307C101.635 28.837 92.4316 33.003 85.1384 39.3944L85.1383 39.3945C76.6592 46.8241 69.7911 56.067 65.4352 68.3914L65.4095 68.464L65.3794 68.5349L63.8783 72.0725L61.5731 77.5049L59.2744 72.0698L58.4449 70.1085L57.7556 68.5936L57.7434 68.5668L57.7319 68.5397L57.2411 67.3899L57.204 67.303L57.1736 67.2135C52.5852 53.7237 45.9272 44.1147 37.4834 37.7652C29.7028 31.9143 20.2314 28.6997 9.0804 27.9146C9.3873 30.1579 9.82905 32.3813 10.4034 34.5725C12.1436 41.1843 15.5236 48.7662 21.8034 53.844L21.8036 53.8441C25.187 56.5805 30.2632 58.2235 35.9982 59.7112C36.7674 59.9107 37.5537 60.1075 38.3505 60.3069C43.197 61.5197 48.4316 62.8296 52.5534 65.4481L52.5535 65.4482C56.6845 68.0728 59.2045 72.0884 60.2915 76.5295C61.3644 80.9111 61.1404 85.6976 60.143 90.5333L114.055 27.9307ZM114.055 27.9307C113.664 30.7552 112.927 34.5223 111.541 38.479C109.602 44.0104 106.454 49.7419 101.372 53.8516C98.037 56.5487 92.9974 58.1499 87.2536 59.6131C86.4914 59.8072 85.7123 59.9987 84.9224 60.1927C80.063 61.3868 74.8012 62.6797 70.6454 65.2961C66.4954 67.9086 63.9346 71.9124 62.8147 76.359L114.055 27.9307Z" stroke="#FE9A30" stroke-width="5"/>
</svg>
